<svg width="281" height="126" viewBox="0 0 281 126" fill="none" xmlns="http://www.w3.org/2000/svg">
<g clip-path="url(#clip0)">
<path d="M57.89 26.9775L41.3255 43.5398L19.874 64.989L19.9235 98.8223L53.7568 98.8718L70.3258 82.3028L91.7728 60.8558L91.874 26.8695L57.89 26.9775ZM59.087 29.853L86.942 29.7698L71.1695 45.5423H43.4L59.087 29.853ZM38.441 50.499V78.2685L22.799 93.9105L22.7563 66.1838L38.441 50.499ZM52.5643 95.9895L24.8375 95.9513L40.4795 80.3093H68.249L52.5665 95.9918L52.5643 95.9895ZM41.3233 77.427V48.4223H70.3258V77.4225H41.3233V77.427ZM73.2058 75.3503V47.5785L88.9783 31.806L88.8928 59.661L73.2058 75.3503Z" fill="url(#paint0_linear)"/>
</g>
<path d="M113.488 50.0146H120.546C123.861 50.0146 126.26 50.5103 127.741 51.5015C129.222 52.4927 129.962 54.0592 129.962 56.2012C129.962 57.6823 129.547 58.9071 128.715 59.8755C127.895 60.8325 126.693 61.4535 125.109 61.7383V61.9092C128.903 62.5586 130.8 64.5524 130.8 67.8906C130.8 70.1237 130.042 71.8669 128.527 73.1201C127.023 74.3734 124.915 75 122.204 75H113.488V50.0146ZM116.393 60.7129H121.178C123.229 60.7129 124.704 60.3939 125.604 59.7559C126.505 59.1064 126.955 58.0184 126.955 56.4917C126.955 55.0903 126.453 54.082 125.451 53.4668C124.448 52.8402 122.853 52.5269 120.666 52.5269H116.393V60.7129ZM116.393 63.1738V72.522H121.605C123.622 72.522 125.137 72.1346 126.151 71.3599C127.177 70.5737 127.689 69.349 127.689 67.6855C127.689 66.1361 127.165 64.9967 126.117 64.2676C125.08 63.5384 123.497 63.1738 121.366 63.1738H116.393ZM157.87 62.4731C157.87 66.4722 156.856 69.6167 154.828 71.9067C152.812 74.1968 150.003 75.3418 146.403 75.3418C142.723 75.3418 139.88 74.2196 137.875 71.9751C135.881 69.7192 134.884 66.5405 134.884 62.439C134.884 58.3716 135.887 55.2214 137.892 52.9883C139.897 50.7438 142.746 49.6216 146.437 49.6216C150.026 49.6216 152.829 50.7609 154.845 53.0396C156.862 55.3182 157.87 58.4627 157.87 62.4731ZM137.96 62.4731C137.96 65.8569 138.678 68.4261 140.114 70.1807C141.561 71.9238 143.657 72.7954 146.403 72.7954C149.171 72.7954 151.262 71.9238 152.675 70.1807C154.088 68.4375 154.794 65.8683 154.794 62.4731C154.794 59.1121 154.088 56.5658 152.675 54.834C151.273 53.0908 149.194 52.2192 146.437 52.2192C143.668 52.2192 141.561 53.0965 140.114 54.8511C138.678 56.5942 137.96 59.1349 137.96 62.4731ZM182.975 75H179.66L166.005 54.0308H165.868C166.05 56.4917 166.142 58.7476 166.142 60.7983V75H163.458V50.0146H166.74L180.36 70.8984H180.497C180.474 70.5908 180.423 69.6053 180.343 67.9419C180.264 66.2671 180.235 65.0708 180.258 64.353V50.0146H182.975V75ZM192.75 75H189.845V50.0146H203.773V52.5952H192.75V61.7383H203.107V64.3188H192.75V75ZM207.926 75V50.0146H210.832V75H207.926ZM237.646 62.2681C237.646 66.3924 236.523 69.5483 234.279 71.7358C232.046 73.9119 228.827 75 224.623 75H217.702V50.0146H225.358C229.243 50.0146 232.262 51.0913 234.416 53.2446C236.569 55.3979 237.646 58.4058 237.646 62.2681ZM234.569 62.3706C234.569 59.1121 233.749 56.6569 232.108 55.0049C230.479 53.3529 228.052 52.5269 224.828 52.5269H220.607V72.4878H224.145C227.608 72.4878 230.211 71.639 231.955 69.9414C233.698 68.2324 234.569 65.7088 234.569 62.3706ZM258.939 75L255.829 67.0532H245.814L242.738 75H239.799L249.677 49.9121H252.121L261.947 75H258.939ZM254.923 64.4385L252.018 56.6968C251.642 55.717 251.255 54.515 250.856 53.0908C250.605 54.1846 250.246 55.3866 249.779 56.6968L246.84 64.4385H254.923Z" fill="black"/>
<defs>
<linearGradient id="paint0_linear" x1="19.874" y1="26.8718" x2="92.4748" y2="26.8718" gradientUnits="userSpaceOnUse">
<stop stop-color="#3333FF"/>
<stop offset="1" stop-color="#8080FF"/>
</linearGradient>
<clipPath id="clip0">
<rect width="72" height="72" fill="white" transform="translate(20 27)"/>
</clipPath>
</defs>
</svg>
