<svg width="422" height="165" viewBox="0 0 422 165" fill="none" xmlns="http://www.w3.org/2000/svg">
<rect x="0.603516" y="0.945312" width="420.465" height="163.06" rx="20" fill="#121212"/>
<path d="M91.1541 44.1432H100.665C102.002 44.1432 103.085 45.2344 103.085 46.5805C103.085 47.9266 102.002 49.0178 100.665 49.0178H89.1931C89.014 49.0178 88.8408 49.0822 88.7048 49.1995L85.2409 52.1853C84.7106 52.6424 85.0314 53.5174 85.7292 53.5174H100.091C100.097 53.5174 100.102 53.5125 100.102 53.5066C100.102 53.5003 100.107 53.4953 100.113 53.4958C100.294 53.5101 100.477 53.5174 100.661 53.5174C104.471 53.5174 107.559 50.4116 107.559 46.5805C107.559 42.9424 104.774 39.9584 101.231 39.667C101.225 39.6665 101.22 39.6614 101.22 39.6553C101.22 39.6489 101.215 39.6437 101.209 39.6437H90.9619C89.6258 39.6437 88.5428 38.5525 88.5428 37.2064C88.5428 35.8603 89.6258 34.7691 90.9619 34.7691H102.418C102.607 34.7691 102.789 34.6976 102.927 34.5689L106.144 31.5831C106.647 31.116 106.319 30.2695 105.635 30.2695H91.1541C91.1534 30.2695 91.1528 30.2701 91.1528 30.2708C91.1528 30.2714 91.1523 30.272 91.1516 30.272C91.0901 30.2704 91.0283 30.2695 90.9664 30.2695C87.1567 30.2695 84.0684 33.3753 84.0684 37.2064C84.0684 41.0375 87.1567 44.1432 90.9664 44.1432C91.0283 44.1432 91.0901 44.1424 91.1516 44.1408C91.1523 44.1408 91.1528 44.1413 91.1528 44.142C91.1528 44.1427 91.1534 44.1432 91.1541 44.1432Z" fill="white"/>
<path d="M146.552 30.2695C146.136 30.2695 145.799 30.6084 145.799 31.0264V52.7605C145.799 53.1785 146.136 53.5174 146.552 53.5174H163.969C164.177 53.5174 164.376 53.4308 164.518 53.2782L166.698 50.9404C167.149 50.457 166.808 49.6658 166.149 49.6658H150.942C150.526 49.6658 150.189 49.327 150.189 48.9089V31.0264C150.189 30.6084 149.852 30.2695 149.436 30.2695H146.552Z" fill="white"/>
<path fill-rule="evenodd" clip-rule="evenodd" d="M118.657 30.2695C118.656 30.2695 118.655 30.2704 118.655 30.2716C118.655 30.2727 118.654 30.2736 118.653 30.2736C116.427 30.3701 114.639 32.1614 114.543 34.3922C114.543 34.3933 114.542 34.3941 114.541 34.3941C114.54 34.3941 114.54 34.3944 114.539 34.3948C114.539 34.3952 114.539 34.3957 114.539 34.3962V49.0158C114.539 49.0169 114.54 49.0178 114.541 49.0178C114.542 49.0178 114.543 49.0187 114.543 49.0198C114.54 49.0813 114.539 49.1431 114.539 49.2053C114.539 51.5233 116.364 53.4141 118.653 53.5133C118.654 53.5133 118.655 53.5142 118.655 53.5153L118.655 53.5163L118.655 53.5169C118.656 53.5172 118.656 53.5174 118.657 53.5174H134.46C134.461 53.5174 134.462 53.5164 134.462 53.5153L134.463 53.5141L134.463 53.5135L134.464 53.5133C136.753 53.4141 138.578 51.5233 138.578 49.2053C138.578 49.1431 138.577 49.0813 138.574 49.0198C138.574 49.0187 138.575 49.0178 138.576 49.0178C138.577 49.0178 138.578 49.0169 138.578 49.0158V34.3962C138.578 34.3951 138.577 34.3941 138.576 34.3941C138.575 34.3941 138.574 34.3933 138.574 34.3922C138.478 32.1614 136.69 30.3701 134.464 30.2736C134.463 30.2736 134.462 30.2727 134.462 30.2716C134.462 30.2704 134.461 30.2695 134.46 30.2695L118.657 30.2695ZM121.603 34.3941L121.602 34.3947L121.601 34.3954C121.601 34.3961 121.601 34.3967 121.6 34.3967C120.209 34.4574 119.092 35.5842 119.031 36.9874C119.031 36.9881 119.031 36.9887 119.03 36.9887C119.029 36.9887 119.029 36.9892 119.029 36.9899V46.1862C119.029 46.1869 119.029 46.1874 119.03 46.1874C119.031 46.1874 119.031 46.188 119.031 46.1887C119.03 46.2274 119.029 46.2663 119.029 46.3053C119.029 47.7634 120.17 48.9528 121.6 49.0152C121.601 49.0152 121.601 49.0158 121.601 49.0165L121.601 49.0172L121.602 49.0176L121.603 49.0178H131.514L131.515 49.0177L131.516 49.0172L131.516 49.0165C131.516 49.0158 131.516 49.0152 131.517 49.0152C132.947 48.9528 134.088 47.7634 134.088 46.3053C134.088 46.2663 134.087 46.2274 134.086 46.1887L134.086 46.1884L134.086 46.188L134.087 46.1874C134.088 46.1874 134.088 46.1869 134.088 46.1862V36.9899C134.088 36.9892 134.088 36.9887 134.087 36.9887C134.086 36.9887 134.086 36.9881 134.086 36.9874C134.025 35.5842 132.908 34.4574 131.517 34.3967C131.516 34.3967 131.516 34.3961 131.516 34.3954L131.516 34.3948L131.515 34.3944L131.514 34.3941H121.603Z" fill="white"/>
<path fill-rule="evenodd" clip-rule="evenodd" d="M192.024 52.7605C192.024 53.1785 192.358 53.5174 192.77 53.5174H195.724C196.137 53.5174 196.471 53.1785 196.471 52.7605V34.7711C196.471 34.77 196.47 34.7691 196.469 34.7691L196.468 34.7689L196.468 34.7686C196.467 34.7682 196.467 34.7677 196.467 34.7671C196.47 34.7056 196.471 34.6438 196.471 34.5816C196.471 32.2636 194.663 30.3728 192.396 30.2736C192.395 30.2736 192.394 30.2727 192.394 30.2716C192.394 30.2704 192.393 30.2695 192.392 30.2695H177.22C177.219 30.2695 177.218 30.2704 177.218 30.2715C177.218 30.2726 177.218 30.2735 177.216 30.2734C177.156 30.2708 177.095 30.2695 177.033 30.2695C174.679 30.2695 172.771 32.2001 172.771 34.5816C172.771 34.6438 172.773 34.7056 172.775 34.7671C172.775 34.7682 172.774 34.7691 172.773 34.7691C172.772 34.7691 172.771 34.77 172.771 34.7711V52.7605C172.771 53.1785 173.106 53.5174 173.518 53.5174H176.472C176.884 53.5174 177.218 53.1785 177.218 52.7605V45.2751C177.218 44.8571 177.553 44.5182 177.965 44.5182H191.277C191.689 44.5182 192.024 44.8571 192.024 45.2751V52.7605ZM177.219 40.3866V36.6439C177.219 35.1943 178.38 34.0192 179.813 34.0192H189.43C190.862 34.0192 192.024 35.1943 192.024 36.6439V40.3866C192.024 40.8046 191.689 41.1435 191.277 41.1435H177.965C177.553 41.1435 177.219 40.8046 177.219 40.3866Z" fill="white"/>
<path fill-rule="evenodd" clip-rule="evenodd" d="M254.374 53.5174C253.958 53.5174 253.62 53.1785 253.62 52.7605V45.2751C253.62 44.8571 253.283 44.5182 252.866 44.5182H239.407C238.991 44.5182 238.654 44.8571 238.654 45.2751V52.7605C238.654 53.1785 238.316 53.5174 237.9 53.5174H234.917C234.501 53.5174 234.164 53.1785 234.164 52.7605V34.7711L234.164 34.7705L234.164 34.7699C234.164 34.7694 234.165 34.7691 234.166 34.7691C234.167 34.7691 234.168 34.7682 234.167 34.7671C234.165 34.7056 234.164 34.6438 234.164 34.5816C234.164 32.2001 236.09 30.2695 238.467 30.2695C238.529 30.2695 238.59 30.2708 238.652 30.2734C238.653 30.2735 238.654 30.2726 238.654 30.2715C238.654 30.2704 238.654 30.2695 238.656 30.2695L253.992 30.2695C253.994 30.2695 253.994 30.2704 253.994 30.2716C253.994 30.2727 253.995 30.2736 253.996 30.2736C256.285 30.3728 258.11 32.2636 258.11 34.5816C258.11 34.6438 258.109 34.7056 258.106 34.7671C258.106 34.7682 258.107 34.7691 258.108 34.7691C258.109 34.7691 258.109 34.7693 258.11 34.7697C258.11 34.7701 258.11 34.7705 258.11 34.7711V52.7605C258.11 53.1785 257.773 53.5174 257.356 53.5174H254.374ZM238.654 36.6439V40.3866C238.654 40.8046 238.991 41.1435 239.408 41.1435H252.866C253.283 41.1435 253.62 40.8046 253.62 40.3866V36.6439C253.62 35.1943 252.448 34.0192 251.001 34.0192H241.273C239.826 34.0192 238.654 35.1943 238.654 36.6439Z" fill="white"/>
<path d="M207.589 30.2695C207.808 30.2695 208.015 30.3667 208.157 30.5353L221.405 46.3272C221.855 46.8626 222.719 46.5397 222.719 45.836V31.0264C222.719 30.6084 223.054 30.2695 223.466 30.2695H226.42C226.832 30.2695 227.167 30.6084 227.167 31.0264V52.7605C227.167 53.1785 226.832 53.5174 226.42 53.5174H222.747C222.732 53.5174 222.719 53.5047 222.719 53.4891C222.719 53.4823 222.717 53.4756 222.713 53.4705L209.243 37.7888C208.789 37.262 207.934 37.5873 207.934 38.2866V52.7605C207.934 53.1785 207.599 53.5174 207.187 53.5174H204.214C203.802 53.5174 203.467 53.1785 203.467 52.7605V31.0264C203.467 30.6084 203.802 30.2695 204.214 30.2695H207.589Z" fill="white"/>
<path d="M39.2215 48.0165C39.403 47.8351 39.6491 47.7332 39.9057 47.7332H63.5813C64.0126 47.7332 64.2285 48.2547 63.9234 48.5596L59.2451 53.2341C59.0636 53.4155 58.8175 53.5174 58.5609 53.5174H34.8854C34.4541 53.5174 34.2382 52.9958 34.5433 52.691L39.2215 48.0165Z" fill="url(#paint0_linear)"/>
<path d="M39.2215 30.5528C39.403 30.3714 39.6491 30.2695 39.9057 30.2695H63.5813C64.0126 30.2695 64.2285 30.7911 63.9234 31.0959L59.2451 35.7704C59.0636 35.9518 58.8175 36.0537 58.5609 36.0537H34.8854C34.4541 36.0537 34.2382 35.5321 34.5433 35.2273L39.2215 30.5528Z" fill="url(#paint1_linear)"/>
<path d="M59.2451 39.229C59.0636 39.0476 58.8175 38.9458 58.5609 38.9458H34.8854C34.4541 38.9458 34.2382 39.4673 34.5433 39.7721L39.2215 44.4467C39.403 44.628 39.6491 44.7299 39.9057 44.7299H63.5813C64.0126 44.7299 64.2285 44.2084 63.9234 43.9035L59.2451 39.229Z" fill="url(#paint2_linear)"/>
<path d="M85.4583 93.2003C83.4572 80.6793 73.652 73.3611 61.274 73.3611C46.123 73.3611 34.9457 84.71 34.9457 103.434C34.9457 122.159 46.0659 133.507 61.274 133.507C74.138 133.507 83.543 125.446 85.4583 113.868L76.5392 113.84C75.0241 121.33 68.7351 125.446 61.3311 125.446C51.2972 125.446 43.7218 117.756 43.7218 103.434C43.7218 89.2267 51.2686 81.4226 61.3597 81.4226C68.8208 81.4226 75.0813 85.6248 76.5392 93.2003H85.4583ZM110.618 133.593C122.996 133.593 131.086 124.531 131.086 110.953C131.086 97.2882 122.996 88.2262 110.618 88.2262C98.2396 88.2262 90.1496 97.2882 90.1496 110.953C90.1496 124.531 98.2396 133.593 110.618 133.593ZM110.646 126.418C102.556 126.418 98.7828 119.357 98.7828 110.924C98.7828 102.52 102.556 95.3729 110.646 95.3729C118.679 95.3729 122.453 102.52 122.453 110.924C122.453 119.357 118.679 126.418 110.646 126.418ZM145.954 74.1616H137.406V132.707H145.954V74.1616ZM162.78 74.1616H154.233V132.707H162.78V74.1616ZM189.984 133.593C199.56 133.593 206.335 128.876 208.279 121.73L200.189 120.272C198.645 124.417 194.929 126.532 190.069 126.532C182.751 126.532 177.834 121.787 177.606 113.325H208.822V110.295C208.822 94.4295 199.331 88.2262 189.383 88.2262C177.148 88.2262 169.087 97.5455 169.087 111.038C169.087 124.674 177.034 133.593 189.984 133.593ZM177.634 106.922C177.977 100.69 182.494 95.2871 189.44 95.2871C196.073 95.2871 200.418 100.204 200.446 106.922H177.634ZM233.581 133.593C243.958 133.593 250.676 127.361 251.62 118.814H243.301C242.215 123.559 238.527 126.361 233.639 126.361C226.406 126.361 221.747 120.329 221.747 110.752C221.747 101.347 226.492 95.43 233.639 95.43C239.07 95.43 242.386 98.8604 243.301 102.977H251.62C250.705 94.1151 243.472 88.2262 233.496 88.2262C221.118 88.2262 213.113 97.5455 213.113 110.953C213.113 124.188 220.832 133.593 233.581 133.593ZM278.037 88.7979H269.032V78.2781H260.485V88.7979H254.053V95.6587H260.485V121.587C260.456 129.562 266.545 133.422 273.291 133.279C276.007 133.25 277.837 132.736 278.837 132.364L277.294 125.303C276.722 125.417 275.664 125.675 274.292 125.675C271.519 125.675 269.032 124.76 269.032 119.814V95.6587H278.037V88.7979ZM284.272 132.707H292.819V88.7979H284.272V132.707ZM288.588 82.0229C291.533 82.0229 293.991 79.736 293.991 76.9345C293.991 74.133 291.533 71.8175 288.588 71.8175C285.615 71.8175 283.186 74.133 283.186 76.9345C283.186 79.736 285.615 82.0229 288.588 82.0229ZM338.661 88.7979H329.485L318.393 122.587H317.936L306.816 88.7979H297.639L313.591 132.707H322.738L338.661 88.7979ZM360.826 133.593C370.403 133.593 377.178 128.876 379.121 121.73L371.031 120.272C369.488 124.417 365.771 126.532 360.912 126.532C353.594 126.532 348.677 121.787 348.448 113.325H379.665V110.295C379.665 94.4295 370.174 88.2262 360.226 88.2262C347.991 88.2262 339.929 97.5455 339.929 111.038C339.929 124.674 347.876 133.593 360.826 133.593ZM348.477 106.922C348.82 100.69 353.336 95.2871 360.283 95.2871C366.915 95.2871 371.26 100.204 371.289 106.922H348.477Z" fill="url(#paint3_linear)"/>
<defs>
<linearGradient id="paint0_linear" x1="54.4562" y1="23.8925" x2="38.0708" y2="55.2773" gradientUnits="userSpaceOnUse">
<stop stop-color="#2986FF"/>
<stop offset="1" stop-color="#03E1FF"/>
</linearGradient>
<linearGradient id="paint1_linear" x1="54.4562" y1="23.8925" x2="38.0708" y2="55.2773" gradientUnits="userSpaceOnUse">
<stop stop-color="#2986FF"/>
<stop offset="1" stop-color="#03E1FF"/>
</linearGradient>
<linearGradient id="paint2_linear" x1="54.4562" y1="23.8925" x2="38.0708" y2="55.2773" gradientUnits="userSpaceOnUse">
<stop stop-color="#2986FF"/>
<stop offset="1" stop-color="#03E1FF"/>
</linearGradient>
<linearGradient id="paint3_linear" x1="269.725" y1="28.0994" x2="240.285" y2="189.37" gradientUnits="userSpaceOnUse">
<stop stop-color="#2986FF"/>
<stop offset="1" stop-color="#03E1FF"/>
</linearGradient>
</defs>
</svg>
