<svg xmlns="http://www.w3.org/2000/svg" width="570" height="300" viewBox="0 0 570 300"><title>Artboard</title><defs><linearGradient id="a" x1="50.258%" x2="50.258%" y1="100.037%" y2=".145%"><stop offset="0%" stop-color="#05AAC5"/><stop offset="100%" stop-color="#71E0EC"/></linearGradient><linearGradient id="b" x1="49.914%" x2="49.914%" y1="99.979%" y2=".149%"><stop offset="0%" stop-color="#05AAC5"/><stop offset="100%" stop-color="#71E0EC"/></linearGradient><linearGradient id="c" x1="50.045%" x2="50.045%" y1="99.95%" y2=".051%"><stop offset="0%" stop-color="#05AAC5"/><stop offset="100%" stop-color="#71E0EC"/></linearGradient></defs><g fill="none" fill-rule="nonzero"><path fill="url(#a)" d="M116.642 190C95.302 190 78 172.783 78 151.548c0-20.661 34.894-57.105 36.335-58.54l1.73-2.008 1.73 2.009c1.443 1.434 37.201 37.878 37.201 58.539.289 21.235-17.014 38.452-38.354 38.452zm-.288-91.54c-3.172 3.444-9.516 10.331-15.86 18.94-11.247 14.922-17.303 26.687-17.303 34.148 0 18.365 14.995 33.287 33.451 33.287 18.456 0 33.452-14.922 33.452-33.287 0-7.461-6.056-19.226-17.59-34.148-6.345-8.322-12.978-15.496-16.15-18.94z"/><path fill="url(#b)" d="M116.856 203C88.7 203 66 180.212 66 151.942c0-27.404 38.214-65.769 39.938-67.5 1.15-.865 2.586-.865 3.735 0 .862 1.154.862 2.596 0 3.75-.574.289-38.501 38.366-38.501 63.75 0 25.385 20.4 45.866 45.684 45.866 25.285 0 45.685-20.481 45.685-45.866 0-10.384-6.609-24.807-19.25-41.538-9.77-12.98-19.539-22.789-19.539-22.789-1.15-.865-1.15-2.596 0-3.75.862-1.153 2.586-1.153 3.735 0C129.211 85.596 168 124.538 168 151.942c-.287 28.27-22.986 51.058-51.144 51.058z"/><path fill="url(#c)" d="M117 215c-34.028 0-62-27.87-62-61.775 0-14.08 7.21-31.319 21.051-51.432 10.382-14.653 20.475-25.285 21.051-25.86.865-1.148 2.596-1.148 3.75 0 1.153.863 1.153 2.587 0 3.736 0 0-10.382 10.631-20.475 25.285-13.265 18.963-20.186 35.628-20.186 48.558 0 31.319 25.665 56.603 56.809 56.603s56.81-25.859 56.81-56.89c0-12.93-6.922-29.595-20.187-48.559C143.53 90.3 133.15 79.67 133.15 79.382c-.865-1.15-.865-2.586 0-3.736 1.153-.861 2.595-.861 3.749 0C138.34 77.658 179 119.607 179 153.225 179 187.129 151.316 215 117 215z"/><g fill="#282828"><path d="M205.864 165.563l12.382-1.15c.864 4.024 2.304 7.187 4.608 9.2 2.303 2.012 5.471 2.874 9.215 2.874 4.031 0 7.199-.862 9.214-2.587 2.016-1.725 3.168-3.738 3.168-6.038 0-1.437-.576-2.875-1.44-3.737-.864-1.15-2.304-2.013-4.607-2.587-1.44-.576-4.896-1.438-10.079-2.876-6.911-1.725-11.519-3.737-14.398-6.325-3.744-3.45-5.76-7.762-5.76-12.65 0-3.162.864-6.325 2.592-8.912 1.728-2.588 4.32-4.888 7.775-6.325 3.456-1.438 7.487-2.3 12.383-2.3 8.063 0 13.822 1.725 17.853 5.175 4.032 3.45 6.048 8.05 6.336 13.8l-12.67.575c-.577-3.163-1.729-5.463-3.456-6.9-1.728-1.438-4.32-2.3-8.063-2.3-3.744 0-6.623.862-8.64 2.3-1.439.862-2.015 2.3-2.015 4.025 0 1.437.576 2.875 2.016 3.737 1.728 1.438 5.471 2.875 11.806 4.313 6.335 1.437 10.655 2.875 13.822 4.6 2.88 1.437 5.184 3.737 6.912 6.325 1.727 2.587 2.591 6.037 2.591 10.062 0 3.738-.864 6.9-2.88 10.063-2.015 3.162-4.895 5.462-8.638 6.9-3.744 1.437-8.351 2.3-13.822 2.3-8.063 0-14.11-1.725-18.43-5.463-4.32-3.737-6.911-8.912-7.775-16.1zM267.776 186.263v-63.251h46.65v10.638h-33.98v14.088h31.676v10.637h-31.676v17.25h35.132v10.638zM326.808 186.262v-63.25h26.78c6.624 0 11.52.575 14.687 1.725 3.168 1.15 5.471 3.163 7.2 6.038 1.727 2.875 2.879 6.325 2.879 10.062 0 4.6-1.44 8.625-4.32 11.788-2.88 3.162-6.91 4.887-12.382 5.75 2.88 1.725 4.895 3.45 6.911 5.175 1.728 2.012 4.32 5.462 7.199 10.35l7.775 12.362h-15.262l-9.215-13.8c-3.167-4.887-5.471-8.05-6.623-9.2-1.152-1.15-2.592-2.012-3.743-2.587-1.44-.575-3.456-.575-6.336-.575h-2.591v26.162h-12.959zm12.67-36.512h9.503c6.048 0 9.791-.288 11.519-.863 1.44-.575 2.592-1.437 3.456-2.587.863-1.15 1.151-2.875 1.151-4.6 0-2.012-.576-3.737-1.727-5.175-1.152-1.438-2.592-2.013-4.896-2.588-1.152 0-4.031-.287-9.215-.287h-10.078v16.1h.288zM390.16 123.013h12.67v34.212c0 5.462.289 8.913.576 10.637.576 2.588 1.728 4.6 4.032 6.325 2.016 1.438 4.895 2.3 8.35 2.3 3.744 0 6.336-.862 8.064-2.3 1.728-1.437 2.88-3.162 3.455-5.462.288-2.013.576-5.75.576-10.638v-35.075h12.67v33.063c0 7.475-.287 12.938-1.151 16.1-.576 3.162-2.016 5.75-3.744 8.05-1.727 2.012-4.32 3.737-7.487 5.175-3.167 1.437-7.199 2.012-12.094 2.012-6.047 0-10.655-.575-13.822-2.012-3.168-1.438-5.472-3.163-7.487-5.463-1.728-2.3-2.88-4.6-3.456-6.9-.864-3.737-1.152-8.912-1.152-16.1v-33.925zM453.8 186.263v-63.251h19.006l11.518 42.838 11.231-42.838h19.005v62.963h-11.806v-49.45l-12.383 49.738h-12.382l-12.383-49.738v49.738z"/></g></g></svg>